
<svg width="407px" height="100px" viewBox="0 0 407 100" version="1.1" xmlns="http://www.w3.org/2000/svg" xmlns:xlink="http://www.w3.org/1999/xlink">
    <!-- Generator: Sketch 44.1 (41455) - http://www.bohemiancoding.com/sketch -->
    <desc>Created with Sketch.</desc>
    <defs>
        <polygon id="path-1" points="0.0695726496 90.9984006 0.0695726496 0.80202373 45.1532293 0.80202373 90.236886 0.80202373 90.236886 90.9984006"></polygon>
    </defs>
    <g id="Symbols" stroke="none" stroke-width="1" fill="none" fill-rule="evenodd">
        <g id="desktop-/-masthead" transform="translate(-158.000000, -27.000000)">
            <g id="logo-wide">
                <g transform="translate(158.000000, 27.000000)">
                    <g id="Group-3">
                        <mask id="mask-2" fill="white">
                            <use xlink:href="#path-1"></use>
                        </mask>
                        <g id="Clip-2"></g>
                        <path d="M90.236886,45.8996327 C90.236886,70.8075691 70.0376268,90.9984006 45.1190228,90.9984006 C20.1992593,90.9984006 0,70.8075691 0,45.8996327 C0,20.9928552 20.1992593,0.80202373 45.1190228,0.80202373 C70.0376268,0.80202373 90.236886,20.9928552 90.236886,45.8996327" id="Fill-1" fill="#EFC6BD" mask="url(#mask-2)"></path>
                    </g>
                    <path d="M25.5783846,21.6326198 C24.5359544,21.6326198 23.6384672,22.0000209 22.9102735,22.72671 C22.1843989,23.4545581 21.8156638,24.3527784 21.8156638,25.3947138 L21.8156638,62.6250726 C21.8156638,63.6693261 22.1843989,64.5663873 22.9102735,65.2907584 C23.6361481,66.0174476 24.5336353,66.3848486 25.5783846,66.3848486 C26.6219744,66.3848486 27.5287379,66.0186065 28.2731652,65.2942354 C29.0233903,64.5675463 29.4037208,63.670485 29.4037208,62.6250726 L29.4037208,25.3947138 C29.4037208,24.3516194 29.0233903,23.4522402 28.2731652,22.723233 C27.5264188,21.9988619 26.6184957,21.6326198 25.5783846,21.6326198" id="Fill-4" fill="#062D5D"></path>
                    <path d="M43.3565157,27.1610204 C43.3565157,25.4190527 42.9205271,23.9981262 42.0601453,22.9399649 C41.185849,21.8632596 40.0263048,21.3185325 38.6151396,21.3185325 C37.2167293,21.3185325 36.0745783,21.7508372 35.2211538,22.6026977 C34.3700484,23.4533991 33.9375385,24.5428533 33.9375385,25.8362905 L33.9375385,26.3416118 C33.9375385,27.5052416 34.3143903,28.4950223 35.0576581,29.2831381 C35.737151,30.0063503 36.5720228,30.5116716 37.5425613,30.7909891 C37.5877835,33.4103151 36.2461909,35.1047641 33.4482108,35.9693735 C32.0787892,36.3889293 31.7900627,37.2790365 31.7900627,37.951253 C31.7900627,38.890038 32.1808291,40.008467 34.0384188,40.008467 C36.2531481,40.008467 38.3832308,39.0024604 40.3672108,37.0194219 C42.3511909,35.0375425 43.3565157,31.933757 43.3565157,27.7915131 L43.3565157,27.1610204" id="Fill-5" fill="#062D5D"></path>
                    <path d="M67.7417293,46.9380911 L50.6233789,46.9380911 C50.966604,45.5716374 51.8026353,44.2573384 53.1140798,43.021851 C54.5217664,41.692485 56.4292165,40.955365 58.7819316,40.8290346 C61.2262507,41.0353355 63.2786439,41.8199744 64.8811339,43.1574533 C66.3514359,44.3871457 67.3115385,45.6574029 67.7417293,46.9380911 Z M73.2831909,51.9507394 C73.9522479,51.3272008 74.2919943,50.5019972 74.2919943,49.5006265 L74.2908348,49.1668363 C74.035735,44.8634922 72.4228091,41.2636573 69.4984387,38.4681642 C66.5717493,35.6726711 62.9249829,34.2552216 58.6590199,34.2552216 C54.3884188,34.2552216 50.6964302,35.8453612 47.685094,38.9827575 C44.678396,42.1166768 43.1327236,45.9309255 43.0921396,50.3223531 C43.1327236,54.7114627 44.678396,58.5141215 47.6874131,61.6271789 C50.6975897,64.7425543 54.4835014,66.3326939 58.9419487,66.3535558 L59.0497863,66.3535558 C63.4560541,66.3535558 67.2350085,64.9372653 70.3112792,62.1151153 C71.5890969,60.5655406 71.5856182,59.0576896 70.3170769,57.6518301 C69.8393447,57.0329274 69.0183875,56.7188401 67.877396,56.7188401 C66.748,56.7188401 65.8261624,57.0897181 65.1837749,57.7816374 C63.3609715,59.0797105 61.1682735,59.5803958 58.6624986,59.2767394 C56.1613618,58.9730831 54.2376781,58.0609549 52.9204359,56.542673 C51.9870028,55.6838586 51.3214245,54.4541661 50.941094,52.8825705 L70.6556638,52.8825705 C71.7351994,52.8825705 72.6199316,52.5684832 73.2831909,51.9507394 L73.2831909,51.9507394 Z" id="Fill-6" fill="#062D5D"></path>
                    <path d="M117.631117,22.1333052 C117.631117,20.9835833 118.03116,20.0100285 118.831245,19.2091637 C119.630171,18.411776 120.604188,18.0107641 121.754456,18.0107641 C122.904724,18.0107641 123.892655,18.411776 124.717091,19.2091637 C125.541527,20.0100285 125.954325,20.9835833 125.954325,22.1333052 L125.954325,66.3489198 C125.954325,67.4986417 125.541527,68.4733555 124.717091,69.2719022 C123.892655,70.071608 122.904724,70.4714608 121.754456,70.4714608 C120.604188,70.4714608 119.630171,70.071608 118.831245,69.2719022 C118.03116,68.4733555 117.631117,67.4986417 117.631117,66.3489198 L117.631117,22.1333052" id="Fill-7" fill="#FFFFFF"></path>
                    <path d="M133.264091,34.2355187 C134.038667,33.4624699 134.999929,33.0742069 136.150197,33.0742069 C137.299305,33.0742069 138.261726,33.4624699 139.037462,34.2355187 C139.812037,35.0108856 140.199325,35.9971894 140.199325,37.196748 L140.199325,66.4230954 C140.199325,67.5739763 139.812037,68.5359411 139.037462,69.310149 C138.261726,70.0855159 137.31206,70.4714608 136.188462,70.4714608 C135.062544,70.4714608 134.100123,70.071608 133.301197,69.2719022 C132.501111,68.4733555 132.101068,67.5241395 132.101068,66.4230954 L132.101068,37.196748 C132.101068,35.9971894 132.488356,35.0108856 133.264091,34.2355187 Z M140.199325,22.0579706 L140.199325,23.6318842 C140.199325,24.7816061 139.812037,25.7563199 139.037462,26.5537076 C138.261726,27.3545724 137.31206,27.7532663 136.188462,27.7532663 C135.062544,27.7532663 134.100123,27.3545724 133.301197,26.5537076 C132.501111,25.7563199 132.101068,24.7816061 132.101068,23.6318842 L132.101068,22.0579706 C132.101068,20.9592444 132.501111,20.0100285 133.301197,19.2091637 C134.100123,18.411776 135.062544,18.0107641 136.188462,18.0107641 C137.31206,18.0107641 138.261726,18.3978681 139.037462,19.1720759 C139.812037,19.9474428 140.199325,20.9094077 140.199325,22.0579706 L140.199325,22.0579706 Z" id="Fill-8" fill="#FFFFFF"></path>
                    <path d="M149.871083,22.1333052 C149.871083,20.9835833 150.269966,20.0100285 151.071211,19.2091637 C151.870137,18.411776 152.844154,18.0107641 153.994422,18.0107641 C155.14353,18.0107641 156.131462,18.411776 156.955897,19.2091637 C157.781493,20.0100285 158.193131,20.9835833 158.193131,22.1333052 L158.193131,66.3489198 C158.193131,67.4986417 157.781493,68.4733555 156.955897,69.2719022 C156.131462,70.071608 155.14353,70.4714608 153.994422,70.4714608 C152.844154,70.4714608 151.870137,70.071608 151.071211,69.2719022 C150.269966,68.4733555 149.871083,67.4986417 149.871083,66.3489198 L149.871083,22.1333052" id="Fill-9" fill="#FFFFFF"></path>
                    <path d="M198.680934,40.1185714 C195.780915,40.2692406 193.457188,41.1674608 191.708595,42.8167091 C189.957684,44.4659573 188.908296,46.214879 188.559274,48.0634741 L209.777772,48.0634741 C209.326709,46.3145524 208.114986,44.6154675 206.140282,42.9662193 C204.165578,41.31813 201.680675,40.3700731 198.680934,40.1185714 Z M216.751271,50.7616118 C216.751271,51.8603379 216.387174,52.7469682 215.663618,53.4215026 C214.938903,54.096037 213.976481,54.4333042 212.776353,54.4333042 L188.933806,54.4333042 C189.383709,56.5820788 190.232496,58.230168 191.482484,59.3787309 C193.082655,61.228485 195.419137,62.3399601 198.493088,62.7143151 C201.56704,63.0898291 204.229353,62.4778804 206.477709,60.8784689 C207.227934,60.0799222 208.227462,59.6789103 209.47745,59.6789103 C210.726279,59.6789103 211.601735,60.0045876 212.101499,60.6536241 C213.501068,62.2031989 213.501068,63.8269492 212.101499,65.5248752 C208.502274,68.8222126 204.091368,70.4598709 198.867621,70.433214 C193.643875,70.4088752 189.271234,68.573029 185.746219,64.9256754 C182.222365,61.2783218 180.435507,56.8810992 180.385647,51.7351666 C180.435507,46.589234 182.222365,42.1804215 185.746219,38.508729 C189.271234,34.8358776 193.531399,33.0000313 198.531353,33.0000313 C203.528989,33.0000313 207.740453,34.6365306 211.164587,37.9083702 C214.588721,41.1813688 216.450949,45.3398386 216.751271,50.3872568 L216.751271,50.7616118 L216.751271,50.7616118 Z" id="Fill-10" fill="#FFFFFF"></path>
                    <path d="M233.020835,66.499589 C233.020835,67.5983151 232.595282,68.5359411 231.745336,69.310149 C230.89655,70.0855159 229.934128,70.4714608 228.859231,70.4714608 C227.784333,70.4714608 226.860177,70.0855159 226.085601,69.310149 C225.309866,68.5359411 224.923738,67.5983151 224.923738,66.499589 L224.923738,36.9707442 C224.923738,35.873177 225.309866,34.93671 226.085601,34.1613431 C226.860177,33.3871353 227.797088,33.0000313 228.896336,33.0000313 C230.595068,33.0000313 231.820707,33.7753982 232.570932,35.323814 C235.019889,33.7753982 237.670607,33.0000313 240.519607,33.0000313 C244.867897,33.0000313 248.565684,34.5356981 251.615285,37.6081908 C254.663726,40.6818424 256.188527,44.3419449 256.188527,48.5873393 L256.188527,66.499589 C256.188527,67.5983151 255.813994,68.5359411 255.064929,69.310149 C254.314704,70.0855159 253.402142,70.4714608 252.327245,70.4714608 C251.252348,70.4714608 250.315436,70.0855159 249.51651,69.310149 C248.715265,68.5359411 248.316382,67.5983151 248.316382,66.499589 L248.316382,48.5873393 C248.316382,46.4884015 247.553402,44.703551 246.029761,43.2293109 C244.503801,41.7562297 242.679838,41.0191096 240.555553,41.0191096 C238.431268,41.0191096 236.64441,41.7562297 235.19498,43.2293109 C233.74555,44.703551 233.020835,46.4884015 233.020835,48.5873393 L233.020835,66.499589" id="Fill-11" fill="#FFFFFF"></path>
                    <path d="M272.758413,51.9600114 C272.758413,54.9084917 273.70808,57.4316213 275.608573,59.5294001 C277.506746,61.6283379 279.868738,62.6772273 282.693387,62.6772273 C285.516877,62.6772273 287.880028,61.6526768 289.779362,59.6047347 C291.677536,57.5556336 292.628362,55.0081652 292.628362,51.9600114 C292.628362,48.9130166 291.66594,46.3284604 289.741097,44.2040247 C287.816254,42.080748 285.478613,41.0191096 282.731652,41.0191096 C279.982373,41.0191096 277.633137,42.1050869 275.683943,44.2782003 C273.73359,46.4513137 272.758413,49.0126901 272.758413,51.9600114 Z M269.909413,65.0751856 C266.409909,61.4776687 264.661316,57.0943541 264.661316,51.9229236 C264.661316,46.7514931 266.409909,42.3055928 269.909413,38.5829046 C273.407758,34.8613754 277.656328,33.0000313 282.657442,33.0000313 C286.454949,33.0000313 289.804872,34.0489207 292.703732,36.1466996 C292.903174,35.2473204 293.378587,34.4986103 294.127652,33.8982515 C294.877877,33.2990517 295.764929,33.0000313 296.788806,33.0000313 C297.813843,33.0000313 298.71365,33.3871353 299.488225,34.1613431 C300.262801,34.93671 300.650088,35.873177 300.650088,36.9707442 L300.650088,65.8992302 C300.650088,70.8458159 298.888741,75.0796203 295.364886,78.6018026 C291.841031,82.1239848 287.605217,83.8856554 282.657442,83.8856554 C279.807282,83.8856554 277.183234,83.2609578 274.784137,82.0127214 C273.782291,81.5630318 273.108595,80.8004139 272.758413,79.7260266 C272.40939,78.6516393 272.483601,77.6154988 272.984524,76.6164461 C273.483128,75.6162345 274.246108,74.9417 275.271145,74.5928429 C276.295023,74.2428268 277.332815,74.2938225 278.382202,74.7423531 C279.680892,75.4423854 281.318168,75.7912425 283.292872,75.7912425 C285.268735,75.7912425 287.165749,75.0297836 288.992031,73.5068657 C290.817154,71.9816298 291.979017,70.071608 292.478781,67.7733232 C289.577601,69.7714286 286.304208,70.7704813 282.657442,70.7704813 C277.656328,70.7704813 273.407758,68.8732084 269.909413,65.0751856 L269.909413,65.0751856 Z" id="Fill-12" fill="#FFFFFF"></path>
                    <path d="M314.110077,34.2355187 C314.884652,33.4624699 315.844755,33.0742069 316.995023,33.0742069 C318.145291,33.0742069 319.106553,33.4624699 319.882288,34.2355187 C320.656863,35.0108856 321.044151,35.9971894 321.044151,37.196748 L321.044151,66.4230954 C321.044151,67.5739763 320.656863,68.5359411 319.882288,69.310149 C319.106553,70.0855159 318.158046,70.4714608 317.033288,70.4714608 C315.90737,70.4714608 314.944949,70.071608 314.146023,69.2719022 C313.345937,68.4733555 312.947054,67.5241395 312.947054,66.4230954 L312.947054,37.196748 C312.947054,35.9971894 313.333182,35.0108856 314.110077,34.2355187 Z M321.044151,22.0579706 L321.044151,23.6318842 C321.044151,24.7816061 320.656863,25.7563199 319.882288,26.5537076 C319.106553,27.3545724 318.158046,27.7532663 317.033288,27.7532663 C315.90737,27.7532663 314.944949,27.3545724 314.146023,26.5537076 C313.345937,25.7563199 312.947054,24.7816061 312.947054,23.6318842 L312.947054,22.0579706 C312.947054,20.9592444 313.345937,20.0100285 314.146023,19.2091637 C314.944949,18.411776 315.90737,18.0107641 317.033288,18.0107641 C318.158046,18.0107641 319.106553,18.3978681 319.882288,19.1720759 C320.656863,19.9474428 321.044151,20.9094077 321.044151,22.0579706 L321.044151,22.0579706 Z" id="Fill-13" fill="#FFFFFF"></path>
                    <path d="M338.287732,66.499589 C338.287732,67.5983151 337.863339,68.5359411 337.014553,69.310149 C336.163447,70.0855159 335.201026,70.4714608 334.127288,70.4714608 C333.05239,70.4714608 332.128234,70.0855159 331.353658,69.310149 C330.577923,68.5359411 330.191795,67.5983151 330.191795,66.499589 L330.191795,36.9707442 C330.191795,35.873177 330.577923,34.93671 331.353658,34.1613431 C332.128234,33.3871353 333.065145,33.0000313 334.165553,33.0000313 C335.863125,33.0000313 337.088764,33.7753982 337.838989,35.323814 C340.287946,33.7753982 342.937504,33.0000313 345.786504,33.0000313 C350.134795,33.0000313 353.832581,34.5356981 356.883342,37.6081908 C359.931783,40.6818424 361.457744,44.3419449 361.457744,48.5873393 L361.457744,66.499589 C361.457744,67.5983151 361.082051,68.5359411 360.332986,69.310149 C359.582761,70.0855159 358.670199,70.4714608 357.595302,70.4714608 C356.520405,70.4714608 355.583493,70.0855159 354.784567,69.310149 C353.983322,68.5359411 353.584439,67.5983151 353.584439,66.499589 L353.584439,48.5873393 C353.584439,46.4884015 352.821459,44.703551 351.296658,43.2293109 C349.771858,41.7562297 347.947895,41.0191096 345.82361,41.0191096 C343.698165,41.0191096 341.911308,41.7562297 340.463037,43.2293109 C339.012447,44.703551 338.287732,46.4884015 338.287732,48.5873393 L338.287732,66.499589" id="Fill-14" fill="#FFFFFF"></path>
                    <path d="M388.07392,40.1185714 C385.17506,40.2692406 382.850174,41.1674608 381.100422,42.8167091 C379.34951,44.4659573 378.301282,46.214879 377.952259,48.0634741 L399.170758,48.0634741 C398.719695,46.3145524 397.507972,44.6154675 395.533268,42.9662193 C393.558564,41.31813 391.073661,40.3700731 388.07392,40.1185714 Z M406.144256,50.7616118 C406.144256,51.8603379 405.78016,52.7469682 405.056604,53.4215026 C404.331889,54.096037 403.369467,54.4333042 402.169339,54.4333042 L378.325632,54.4333042 C378.776695,56.5820788 379.626641,58.230168 380.87663,59.3787309 C382.475641,61.228485 384.812123,62.3399601 387.886074,62.7143151 C390.961185,63.0898291 393.622339,62.4778804 395.870695,60.8784689 C396.62092,60.0799222 397.620447,59.6789103 398.870436,59.6789103 C400.119265,59.6789103 400.994721,60.0045876 401.494484,60.6536241 C402.894054,62.2031989 402.894054,63.8269492 401.494484,65.5248752 C397.895259,68.8222126 393.484353,70.4598709 388.261766,70.433214 C383.03686,70.4088752 378.664219,68.573029 375.139205,64.9256754 C371.61535,61.2783218 369.828493,56.8810992 369.778632,51.7351666 C369.828493,46.589234 371.61535,42.1804215 375.139205,38.508729 C378.664219,34.8358776 382.924385,33.0000313 387.924339,33.0000313 C392.921974,33.0000313 397.133439,34.6365306 400.557573,37.9083702 C403.980547,41.1813688 405.843934,45.3398386 406.144256,50.3872568 L406.144256,50.7616118 L406.144256,50.7616118 Z" id="Fill-15" fill="#FFFFFF"></path>
                    <path d="M365.719068,98.9745961 C365.254091,98.5098396 365.021023,97.9430916 365.021023,97.2720342 C365.021023,96.6021357 365.254091,96.0272748 365.719068,95.5509283 C366.185205,95.0757409 366.753382,94.8381471 367.423598,94.8381471 C368.093815,94.8381471 368.668949,95.0757409 369.145521,95.5509283 C369.620934,96.0272748 369.858641,96.6021357 369.858641,97.2720342 C369.858641,97.9430916 369.620934,98.5098396 369.145521,98.9745961 C368.668949,99.4416706 368.093815,99.6734694 367.423598,99.6734694 C366.753382,99.6734694 366.185205,99.4416706 365.719068,98.9745961" id="Fill-16" fill="#FFFFFF"></path>
                    <path d="M374.145476,97.0610973 C372.522114,95.4709578 371.709274,93.5620949 371.709274,91.3333498 C371.709274,89.1046047 372.522114,87.2003778 374.145476,85.6218282 C375.767678,84.0432786 377.705276,83.2412549 379.957111,83.220393 C381.839051,83.220393 383.559815,83.8149568 385.118242,85.0052435 C385.486977,85.286879 385.702652,85.6705059 385.767587,86.1572833 C385.833681,86.6440607 385.718886,87.0717295 385.42784,87.4379715 C385.135635,87.8076906 384.755305,88.0221044 384.291487,88.0881671 C383.82535,88.1530707 383.407915,88.0336944 383.041499,87.730038 C382.088353,87.0392776 381.012296,86.6927385 379.809849,86.6927385 C378.609721,86.6927385 377.531345,87.157495 376.580519,88.0881671 C375.626214,89.0188391 375.150801,90.1106113 375.150801,91.3658016 C375.150801,92.6198329 375.621575,93.7081281 376.564285,94.6260513 C377.504675,95.5462924 378.581892,96.0064129 379.793615,96.0064129 C381.005339,96.0064129 382.088353,95.6598738 383.041499,94.9667954 C383.387043,94.6863189 383.797521,94.5773735 384.274094,94.6434362 C384.751826,94.7083398 385.135635,94.9239127 385.42784,95.2924727 C385.718886,95.6598738 385.833681,96.0759525 385.767587,96.5418681 C385.702652,97.0066246 385.486977,97.4018415 385.118242,97.7252008 C383.516912,98.8737636 381.796148,99.4463066 379.957111,99.4463066 C377.705276,99.4463066 375.767678,98.6512368 374.145476,97.0610973" id="Fill-17" fill="#FFFFFF"></path>
                    <path d="M395.345422,87.9908116 C394.566208,88.8994627 394.176601,90.0248458 394.176601,91.3658016 C394.176601,92.7067575 394.566208,93.8541614 395.345422,94.8056953 C396.190729,95.605401 397.20765,96.0064129 398.397342,96.0064129 C399.587034,96.0064129 400.605114,95.605401 401.449262,94.8056953 C402.29341,93.8541614 402.715484,92.7067575 402.715484,91.3658016 C402.715484,90.0248458 402.29341,88.8994627 401.449262,87.9908116 C400.518148,87.169085 399.501228,86.7564832 398.397342,86.7564832 C397.293456,86.7564832 396.276536,87.169085 395.345422,87.9908116 Z M398.462276,99.5436621 C396.276536,99.5436621 394.425903,98.7427973 392.911538,97.1410679 C391.396014,95.5416564 390.637672,93.6258396 390.637672,91.3970944 C390.637672,89.1706673 391.400652,87.2490555 392.926613,85.6380541 C394.453732,84.0258937 396.288131,83.220393 398.429809,83.220393 C400.572647,83.220393 402.39545,84.0374836 403.900538,85.6705059 C405.405627,87.3035282 406.157011,89.2460019 406.157011,91.4944499 C406.157011,93.7463749 405.39867,95.605401 403.884305,97.0773232 C402.455746,98.7219355 400.648017,99.5436621 398.462276,99.5436621 L398.462276,99.5436621 Z" id="Fill-19" fill="#FFFFFF"></path>
                </g>
            </g>
        </g>
    </g>
</svg>
