<svg xmlns="http://www.w3.org/2000/svg" width="270.52" height="124.17" viewBox="0 0 270.52 124.17"><defs><style>.cls-1{fill:#fff;}.cls-2{fill:#fbb81a;}</style></defs><title>worksafe-logo</title><g id="Layer_2" data-name="Layer 2"><g id="Layer_1-2" data-name="Layer 1"><path class="cls-1" d="M267.55,54.94,241.48,28.86H0V92.07H244.78l22.77-22.75a10.17,10.17,0,0,0,0-14.38"/><path class="cls-2" d="M165.94,30.25,195.05,1.13a3.88,3.88,0,0,1,5.47,0l58.25,58.23a3.91,3.91,0,0,1,0,5.46L200.52,123a3.9,3.9,0,0,1-5.47,0L136.83,64.82a3.88,3.88,0,0,1,0-5.46Z"/><path d="M175,46.71a18.14,18.14,0,0,0-7.16-1.5c-2.45,0-5.57,1.06-5.57,4.89,0,6.11,15.46,3.54,15.46,15.34,0,7.73-6.12,10.66-13.23,10.66a31.78,31.78,0,0,1-9-1.34l.65-6.39a16.78,16.78,0,0,0,8,2.18c2.68,0,6.25-1.36,6.25-4.53,0-6.75-15.44-4-15.44-15.6,0-7.9,6.12-10.78,12.33-10.78a26.59,26.59,0,0,1,8.43,1.27Z"/><path d="M182.88,56.66a13.55,13.55,0,0,1,8-2.82c4,0,5.87,1.41,5.87,5.59H193c-2.83,0-6.17.25-8.74,1.52a7.63,7.63,0,0,0-4.45,7.41c0,5,4.51,7.73,9.07,7.73a9.22,9.22,0,0,0,8-4.48h.1c.06.81.06,2.52.28,3.9h6c-.14-2-.23-3.86-.28-5.82s-.11-3.9-.11-6.5V59.84c0-7.69-3.28-11-11.21-11a23.1,23.1,0,0,0-9,2ZM186.31,68c0-4,4.51-4.5,7.52-4.5h3a8.73,8.73,0,0,1-1.41,5.36,5.83,5.83,0,0,1-4.77,2.32c-2.44,0-4.3-.95-4.3-3.18"/><path d="M209,54.43h-5V49.5h5V45.85c0-5.21,2.94-8.84,8.29-8.84a23.79,23.79,0,0,1,5,.55l-.58,5.62a5.1,5.1,0,0,0-2.92-.92c-2.27,0-3,2-3,4V49.5h5.89v4.93h-5.89V75.5H209Z"/><path d="M244.48,68.51a17.55,17.55,0,0,1-8.63,2.64c-4.2,0-7.13-2.38-7.44-6.57h18c0-9.08-2.72-15.7-12.37-15.7-8.07,0-12.08,6.2-12.08,13.73,0,8.54,5,13.48,13.59,13.48A18,18,0,0,0,244.48,74Zm-16.07-8.59c.31-3.46,2.22-6.09,6-6.09s5.29,2.82,5.49,6.09Z"/><polygon points="170.29 84.27 171.84 84.27 173.68 89.95 173.71 89.95 175.54 84.27 176.98 84.27 174.53 91.51 172.77 91.51 170.29 84.27"/><rect x="179.17" y="84.27" width="1.46" height="7.23"/><path d="M188.62,91.42a8.75,8.75,0,0,1-1.64.23c-2.34,0-4-1.19-4-3.62s1.5-3.86,4-3.86a4.34,4.34,0,0,1,1.62.29l-.08,1.21a3.1,3.1,0,0,0-1.58-.37,2.41,2.41,0,0,0-2.42,2.61A2.38,2.38,0,0,0,187,90.5a3.55,3.55,0,0,0,1.57-.32Z"/><polygon points="192.28 85.41 190.2 85.41 190.2 84.27 195.78 84.27 195.78 85.41 193.73 85.41 193.73 91.51 192.28 91.51 192.28 85.41"/><path d="M197.37,87.88c0,2.2,1.25,3.77,3.56,3.77s3.54-1.59,3.54-3.77a3.55,3.55,0,1,0-7.1,0m1.53,0c0-1.28.58-2.57,2-2.57s2,1.3,2,2.57-.57,2.61-2,2.61-2-1.31-2-2.61"/><path d="M206.52,91.51H208v-3h.48c.6,0,.79.2,1,.75l.84,2.24h1.62l-1.16-2.82c-.15-.33-.37-.72-.76-.75v0a1.6,1.6,0,0,0,1.47-1.66c0-2-1.83-2-3.38-2h-1.56Zm1.43-6.1h.5c.7,0,1.52.1,1.52,1s-.82,1-1.52,1H208Z"/><rect x="214.11" y="84.27" width="1.45" height="7.23"/><path d="M217.68,91.51h1.5l.61-1.66h2.94l.63,1.66H225l-2.85-7.23h-1.63Zm4.65-2.8h-2.1l1-3h0Z"/><path d="M141.21,75.4l-9.92-9.92a4.77,4.77,0,0,1,0-6.74l6.65-6.64,2.62-2.62h-8.34l-2.66,2.64-3.72,3.72a8.87,8.87,0,0,0,0,12.57l7,7Z"/><polygon points="19.06 40.23 26.46 40.23 33.06 68.4 33.14 68.4 39.16 40.23 48.76 40.23 54.97 68.4 55.08 68.4 61.7 40.23 68.56 40.23 59.35 75.5 50.27 75.5 43.9 47.31 43.81 47.31 37.55 75.5 28.4 75.5 19.06 40.23"/><path d="M66.61,62.66c0,7.5,5,13.43,13.59,13.43s13.65-5.93,13.65-13.43c0-8.58-5.92-13.79-13.65-13.79S66.61,54.09,66.61,62.66m7.09-.82c0-3.9,2.1-7.71,6.5-7.71s6.57,3.72,6.57,7.71c0,4.34-1.35,9-6.57,9s-6.5-4.71-6.5-9"/><path d="M96.46,49.5h6v5.9h.1c.32-2.44,3.07-6.53,7.12-6.53a7,7,0,0,1,2.06.21v6.82a6.62,6.62,0,0,0-3-.56c-5.51,0-5.51,6.87-5.51,10.61V75.5H96.46Z"/><rect x="115" y="37.63" width="6.76" height="37.88"/></g></g></svg>